<svg width="132" height="25" viewBox="0 0 132 25" fill="none" xmlns="http://www.w3.org/2000/svg">
<path d="M16.5 7H13.5C12.9477 7 12.5 7.44772 12.5 8V11H16.5C16.6137 10.9975 16.7216 11.0504 16.7892 11.1419C16.8568 11.2334 16.8758 11.352 16.84 11.46L16.1 13.66C16.0318 13.8619 15.8431 13.9984 15.63 14H12.5V21.5C12.5 21.7761 12.2761 22 12 22H9.5C9.22386 22 9 21.7761 9 21.5V14H7.5C7.22386 14 7 13.7761 7 13.5V11.5C7 11.2239 7.22386 11 7.5 11H9V8C9 5.79086 10.7909 4 13 4H16.5C16.7761 4 17 4.22386 17 4.5V6.5C17 6.77614 16.7761 7 16.5 7Z" fill="#2A2C1F"/>
<path d="M92.9727 7.7174C92.5083 8.33692 91.9469 8.87733 91.3102 9.31776C91.3102 9.47959 91.3102 9.64142 91.3102 9.81225C91.3153 12.7511 90.1414 15.5691 88.0517 17.6345C85.9619 19.6999 83.1311 20.8399 80.1939 20.7989C78.4959 20.8046 76.8196 20.4169 75.2963 19.6661C75.2142 19.6302 75.1612 19.549 75.1615 19.4593V19.3604C75.1615 19.2313 75.2661 19.1267 75.3952 19.1267C77.0643 19.0716 78.6739 18.4929 79.9962 17.4724C78.4854 17.4419 77.1261 16.5469 76.5005 15.1707C76.4689 15.0956 76.4787 15.0093 76.5265 14.9432C76.5742 14.8771 76.6529 14.8407 76.7341 14.8471C77.1933 14.8932 77.6571 14.8505 78.1001 14.7212C76.4323 14.375 75.1791 12.9904 74.9997 11.2957C74.9934 11.2144 75.0298 11.1357 75.0959 11.0879C75.162 11.0402 75.2481 11.0303 75.3233 11.062C75.7708 11.2595 76.254 11.3635 76.7431 11.3676C75.2817 10.4085 74.6505 8.58405 75.2064 6.92622C75.2638 6.76513 75.4017 6.64612 75.5694 6.61294C75.7371 6.57975 75.9098 6.63728 76.0242 6.76439C77.9963 8.86325 80.7059 10.114 83.5818 10.2528C83.5082 9.95885 83.472 9.65676 83.474 9.35372C83.5009 7.76472 84.4841 6.34921 85.9633 5.76987C87.4424 5.19054 89.1248 5.56203 90.2229 6.71044C90.9713 6.56785 91.6949 6.31645 92.3706 5.96421C92.4201 5.93331 92.4829 5.93331 92.5324 5.96421C92.5633 6.01373 92.5633 6.07652 92.5324 6.12604C92.2051 6.87552 91.6522 7.50412 90.9508 7.92419C91.565 7.85296 92.1684 7.70807 92.7481 7.49264C92.7969 7.45942 92.861 7.45942 92.9098 7.49264C92.9507 7.51134 92.9813 7.54711 92.9934 7.59042C93.0055 7.63373 92.9979 7.68018 92.9727 7.7174Z" fill="#2A2C1F"/>
<path fill-rule="evenodd" clip-rule="evenodd" d="M52 4H44C41.2386 4 39 6.23858 39 9V17C39 19.7614 41.2386 22 44 22H52C54.7614 22 57 19.7614 57 17V9C57 6.23858 54.7614 4 52 4ZM55.25 17C55.2445 18.7926 53.7926 20.2445 52 20.25H44C42.2074 20.2445 40.7555 18.7926 40.75 17V9C40.7555 7.20735 42.2074 5.75549 44 5.75H52C53.7926 5.75549 55.2445 7.20735 55.25 9V17ZM52.75 9.25C53.3023 9.25 53.75 8.80228 53.75 8.25C53.75 7.69772 53.3023 7.25 52.75 7.25C52.1977 7.25 51.75 7.69772 51.75 8.25C51.75 8.80228 52.1977 9.25 52.75 9.25ZM48 8.5C45.5147 8.5 43.5 10.5147 43.5 13C43.5 15.4853 45.5147 17.5 48 17.5C50.4853 17.5 52.5 15.4853 52.5 13C52.5027 11.8057 52.0294 10.6596 51.1849 9.81508C50.3404 8.97059 49.1943 8.49734 48 8.5ZM45.25 13C45.25 14.5188 46.4812 15.75 48 15.75C49.5188 15.75 50.75 14.5188 50.75 13C50.75 11.4812 49.5188 10.25 48 10.25C46.4812 10.25 45.25 11.4812 45.25 13Z" fill="#2A2C1F"/>
<path fill-rule="evenodd" clip-rule="evenodd" d="M113 4H127C128.105 4 129 4.89543 129 6V20C129 21.1046 128.105 22 127 22H113C111.895 22 111 21.1046 111 20V6C111 4.89543 111.895 4 113 4ZM116 19C116.276 19 116.5 18.7761 116.5 18.5V11.5C116.5 11.2239 116.276 11 116 11H114.5C114.224 11 114 11.2239 114 11.5V18.5C114 18.7761 114.224 19 114.5 19H116ZM115.25 10C114.422 10 113.75 9.32843 113.75 8.5C113.75 7.67157 114.422 7 115.25 7C116.078 7 116.75 7.67157 116.75 8.5C116.75 9.32843 116.078 10 115.25 10ZM125.5 19C125.776 19 126 18.7761 126 18.5V13.9C126.032 12.3108 124.858 10.9545 123.28 10.76C122.177 10.6593 121.108 11.1744 120.5 12.1V11.5C120.5 11.2239 120.276 11 120 11H118.5C118.224 11 118 11.2239 118 11.5V18.5C118 18.7761 118.224 19 118.5 19H120C120.276 19 120.5 18.7761 120.5 18.5V14.75C120.5 13.9216 121.172 13.25 122 13.25C122.828 13.25 123.5 13.9216 123.5 14.75V18.5C123.5 18.7761 123.724 19 124 19H125.5Z" fill="#2A2C1F"/>
</svg>
